<svg id="Layer_1" data-name="Layer 1" xmlns="http://www.w3.org/2000/svg" viewBox="0 0 347.78 35.45"><defs><style>.cls-1{fill:#006cb5;}.cls-2{fill:#a8cf45;}</style></defs><path class="cls-1" d="M9.26,7.08H6.15a1.47,1.47,0,0,0-1,.43,2,2,0,0,0-.5,1.57.68.68,0,0,1-.07.39s-.19.07-.44.07H.46c-.22,0-.35,0-.39-.07S0,9.3,0,9.08V2.15c0-.21,0-.34.07-.38S.24,1.7.46,1.7H24.67c.21,0,.34,0,.38.07s.07.17.07.38V9.08c0,.22,0,.35-.07.39s-.17.07-.38.07H20.88a.52.52,0,0,1-.34-.07c-.05,0-.07-.17-.07-.39A2,2,0,0,0,20,7.51a1.58,1.58,0,0,0-1-.43H15.82v20a4,4,0,0,0,0,.5,1.61,1.61,0,0,0,.25.64,1.63,1.63,0,0,0,.61.54,2.19,2.19,0,0,0,1.1.23c.21,0,.34,0,.38.07s.07.18.07.39v3.92c0,.21,0,.34-.07.39a.69.69,0,0,1-.38.06H7.25a.76.76,0,0,1-.39-.06.73.73,0,0,1-.07-.39V29.42A.73.73,0,0,1,6.86,29c0-.05.18-.07.39-.07a2.13,2.13,0,0,0,1.09-.23A1.66,1.66,0,0,0,9,28.19a1.61,1.61,0,0,0,.25-.64,4,4,0,0,0,0-.5Z"/><path class="cls-1" d="M30.87,8.4a3.07,3.07,0,0,0-.07-.5,2,2,0,0,0-.28-.64,1.53,1.53,0,0,0-.61-.53,2.57,2.57,0,0,0-1.1-.2c-.21,0-.34,0-.38-.07s-.07-.16-.07-.34v-4c0-.21,0-.34.07-.38s.17-.07.38-.07H46.5a10,10,0,0,1,3.86.75,9.56,9.56,0,0,1,3.12,2.07,10,10,0,0,1,2.1,3.15,10.27,10.27,0,0,1,.77,4A10.23,10.23,0,0,1,55.83,15a9.17,9.17,0,0,1-1.48,2.74,9.31,9.31,0,0,1-2.28,2.05,10,10,0,0,1-2.88,1.25l4.06,6.34q.09.14.3.39a2.39,2.39,0,0,0,.68.52,4.45,4.45,0,0,0,1.26.46,8.83,8.83,0,0,0,2,.18c.21,0,.34,0,.38.07s.07.18.07.39v3.92c0,.21,0,.34-.07.39a.69.69,0,0,1-.38.06H51.57a1,1,0,0,1-.41-.06.7.7,0,0,1-.28-.35l-7.7-11.8H37.34v5.56c0,.09,0,.23,0,.43a1.39,1.39,0,0,0,.23.62,1.66,1.66,0,0,0,.64.54,2.53,2.53,0,0,0,1.21.23.52.52,0,0,1,.34.07s.07.18.07.39v3.92c0,.21,0,.34-.07.39a.61.61,0,0,1-.34.06H28.81a.69.69,0,0,1-.38-.06c-.05,0-.07-.18-.07-.39V29.42c0-.21,0-.34.07-.39s.17-.07.38-.07a2.17,2.17,0,0,0,1.1-.23,1.68,1.68,0,0,0,.61-.52,1.73,1.73,0,0,0,.28-.62,3.15,3.15,0,0,0,.07-.45ZM45.5,16.29a3.91,3.91,0,0,0,1.67-.37,4.76,4.76,0,0,0,1.41-1,4.31,4.31,0,0,0,1-1.46,4.75,4.75,0,0,0,0-3.53,4.43,4.43,0,0,0-1-1.44,4.83,4.83,0,0,0-1.44-1,4.22,4.22,0,0,0-1.73-.36H37.34v9.12Z"/><path class="cls-1" d="M71,1.7c.19,0,.3,0,.35.07a.69.69,0,0,1,.06.38v4a.59.59,0,0,1-.06.34s-.16.07-.35.07a2.41,2.41,0,0,0-1,.2,1.76,1.76,0,0,0-.62.48,2,2,0,0,0-.3.57,1.89,1.89,0,0,0-.09.53V21.67a7.56,7.56,0,0,0,.53,2.82,7.25,7.25,0,0,0,1.43,2.31,6.91,6.91,0,0,0,2.15,1.55,6.4,6.4,0,0,0,5.28,0,6.8,6.8,0,0,0,2.15-1.55A7.7,7.7,0,0,0,82,24.49a7.37,7.37,0,0,0,.54-2.82V8.31a4.16,4.16,0,0,0,0-.44,1.15,1.15,0,0,0-.23-.59,1.68,1.68,0,0,0-.61-.52,2.54,2.54,0,0,0-1.19-.23c-.21,0-.34,0-.39-.07A.59.59,0,0,1,80,6.12v-4a.69.69,0,0,1,.06-.38c0-.05.18-.07.39-.07H91.1c.21,0,.34,0,.38.07s.07.17.07.38v4c0,.18,0,.3-.07.34s-.17.07-.38.07a2.42,2.42,0,0,0-1,.2,1.76,1.76,0,0,0-.62.48,2.24,2.24,0,0,0-.3.57,1.89,1.89,0,0,0-.09.53V21.67a12.23,12.23,0,0,1-3.89,9.07,13.09,13.09,0,0,1-4.24,2.64,14.43,14.43,0,0,1-10.35,0,12.88,12.88,0,0,1-4.24-2.64,12.29,12.29,0,0,1-3.9-9.07V8.31a3.55,3.55,0,0,0-.05-.48,1.32,1.32,0,0,0-.25-.59,1.61,1.61,0,0,0-.62-.51,2.66,2.66,0,0,0-1.13-.2c-.19,0-.3,0-.35-.07A.59.59,0,0,1,60,6.12v-4A.69.69,0,0,1,60,1.77c0-.05.16-.07.35-.07Z"/><path class="cls-1" d="M100.53,24.31c.31-.06.47.05.5.32a6.46,6.46,0,0,0,2.33,3.08A7.5,7.5,0,0,0,107.92,29a9,9,0,0,0,2.28-.29,7.42,7.42,0,0,0,1.91-.8,4.5,4.5,0,0,0,1.33-1.23,2.89,2.89,0,0,0,.5-1.65,2.84,2.84,0,0,0-1.21-2.3A14.19,14.19,0,0,0,109.67,21c-1.23-.53-2.55-1.09-4-1.66a23,23,0,0,1-4-2.08,10.83,10.83,0,0,1-3-2.94A7.35,7.35,0,0,1,97.48,10a7.65,7.65,0,0,1,.86-3.6,8.64,8.64,0,0,1,2.37-2.81,11.58,11.58,0,0,1,3.54-1.8,14.76,14.76,0,0,1,4.4-.64,13.82,13.82,0,0,1,4.42.67,10.22,10.22,0,0,1,3.37,1.84,9.35,9.35,0,0,1,2.28,2.78,10.3,10.3,0,0,1,1.14,3.42c.06.31,0,.46-.32.46l-3.6.82c-.21.06-.38,0-.5-.27a5.63,5.63,0,0,0-2.19-3,7.1,7.1,0,0,0-4.33-1.25,6.59,6.59,0,0,0-1.78.25,6.5,6.5,0,0,0-1.66.71,4.12,4.12,0,0,0-1.23,1.11,2.5,2.5,0,0,0-.48,1.49A3.17,3.17,0,0,0,105,12.68a13.76,13.76,0,0,0,3.06,1.83q1.81.83,4,1.59a21.71,21.71,0,0,1,4,1.9A10.69,10.69,0,0,1,119,20.78,6.83,6.83,0,0,1,120.27,25a8.08,8.08,0,0,1-.84,3.62,8.86,8.86,0,0,1-2.42,3,12.07,12.07,0,0,1-3.76,2,16.46,16.46,0,0,1-9.66,0A11.48,11.48,0,0,1,100,31.7a9.34,9.34,0,0,1-2.38-2.85,10.92,10.92,0,0,1-1.14-3.4.41.41,0,0,1,.32-.5Z"/><path class="cls-1" d="M133.5,7.08h-3.1a1.47,1.47,0,0,0-1,.43,2,2,0,0,0-.5,1.57.68.68,0,0,1-.07.39c-.05,0-.19.07-.43.07H124.7c-.22,0-.35,0-.39-.07s-.07-.17-.07-.39V2.15c0-.21,0-.34.07-.38s.17-.07.39-.07h24.21c.21,0,.34,0,.38.07s.07.17.07.38V9.08c0,.22,0,.35-.07.39s-.17.07-.38.07h-3.79a.52.52,0,0,1-.34-.07.68.68,0,0,1-.07-.39,2,2,0,0,0-.52-1.57,1.58,1.58,0,0,0-1-.43h-3.15v20a4,4,0,0,0,.05.5,1.61,1.61,0,0,0,.25.64,1.71,1.71,0,0,0,.61.54,2.19,2.19,0,0,0,1.1.23c.21,0,.34,0,.39.07a.76.76,0,0,1,.06.39v3.92a.76.76,0,0,1-.06.39.76.76,0,0,1-.39.06H131.49a.76.76,0,0,1-.39-.06.73.73,0,0,1-.07-.39V29.42a.73.73,0,0,1,.07-.39c.05-.05.18-.07.39-.07a2.13,2.13,0,0,0,1.09-.23,1.66,1.66,0,0,0,.62-.54,1.61,1.61,0,0,0,.25-.64,4,4,0,0,0,.05-.5Z"/><path class="cls-1" d="M164,21.39,155.93,8.13c-.06-.1-.15-.23-.28-.41a1.87,1.87,0,0,0-.59-.55A3.69,3.69,0,0,0,154,6.71a6.47,6.47,0,0,0-1.66-.18c-.22,0-.35,0-.39-.07s-.07-.16-.07-.34v-4c0-.21,0-.34.07-.38s.17-.07.39-.07h11c.21,0,.34,0,.39.07a.66.66,0,0,1,.07.38v4a.56.56,0,0,1-.07.34c-.05,0-.18.07-.39.07a2.13,2.13,0,0,0-1.16.3.8.8,0,0,0-.48.66l4.83,7.84.73,3,.69-2.92,4.78-7.84c.15-.24.06-.47-.29-.68a2.5,2.5,0,0,0-1.3-.32c-.22,0-.35,0-.39-.07s-.07-.16-.07-.34v-4c0-.21,0-.34.07-.38s.17-.07.39-.07h11c.21,0,.34,0,.39.07a.66.66,0,0,1,.07.38v4a.56.56,0,0,1-.07.34c-.05,0-.18.07-.39.07a4.64,4.64,0,0,0-2.53.5,3.4,3.4,0,0,0-.94.91l-8.16,13.45v5.89a2.92,2.92,0,0,0,.05.45,1.23,1.23,0,0,0,.25.55,1.76,1.76,0,0,0,.62.48,2.68,2.68,0,0,0,1.14.2A.52.52,0,0,1,173,29a.73.73,0,0,1,.07.39v3.92a.73.73,0,0,1-.07.39.61.61,0,0,1-.34.06H162a.76.76,0,0,1-.39-.06.76.76,0,0,1-.06-.39V29.42a.76.76,0,0,1,.06-.39c.05-.05.18-.07.39-.07a2.37,2.37,0,0,0,1.07-.2,1.86,1.86,0,0,0,.6-.48,1.65,1.65,0,0,0,.27-.57,2,2,0,0,0,.07-.48Z"/><path class="cls-2" d="M201.16,8.35a3.07,3.07,0,0,0-.07-.5,1.58,1.58,0,0,0-.3-.61,1.76,1.76,0,0,0-.68-.51,3.07,3.07,0,0,0-1.19-.2.24.24,0,0,1-.27-.27V2a.24.24,0,0,1,.27-.27h18.79a9.08,9.08,0,0,1,3.42.64,8.46,8.46,0,0,1,2.78,1.77,8.62,8.62,0,0,1,1.89,2.72,8.17,8.17,0,0,1,.71,3.39,9.24,9.24,0,0,1-.85,3.83,8.68,8.68,0,0,1-2.21,3.06,8.33,8.33,0,0,1,2.71,3.28,9.78,9.78,0,0,1,1,4.38,8.79,8.79,0,0,1-2.74,6.45,9.29,9.29,0,0,1-3,1.89,9.6,9.6,0,0,1-3.63.68H198.92a.24.24,0,0,1-.27-.27V29.24c0-.19.09-.28.27-.28a2.53,2.53,0,0,0,1.21-.23,1.81,1.81,0,0,0,.66-.54,1.94,1.94,0,0,0,.3-.64,3.07,3.07,0,0,0,.07-.5ZM216,15a3.54,3.54,0,0,0,1.44-.32,3.5,3.5,0,0,0,1.2-.87,4.4,4.4,0,0,0,.82-1.27A3.63,3.63,0,0,0,219.8,11a3.89,3.89,0,0,0-3.87-3.87h-8.3V15Zm.18,13.36a3.91,3.91,0,0,0,1.67-.37,4.55,4.55,0,0,0,1.39-1,4.77,4.77,0,0,0,.93-1.43,4.6,4.6,0,0,0,0-3.47,4.52,4.52,0,0,0-2.37-2.39,4.15,4.15,0,0,0-1.66-.34h-8.53v9Z"/><path class="cls-2" d="M242.6,21.39,234.53,8.13l-.27-.41a2,2,0,0,0-.6-.55,3.69,3.69,0,0,0-1.07-.46,6.42,6.42,0,0,0-1.66-.18c-.21,0-.34,0-.39-.07a.56.56,0,0,1-.07-.34v-4a.66.66,0,0,1,.07-.38c.05-.05.18-.07.39-.07h11c.21,0,.34,0,.39.07s.07.17.07.38v4c0,.18,0,.3-.07.34s-.18.07-.39.07a2.15,2.15,0,0,0-1.16.3.8.8,0,0,0-.48.66l4.83,7.84.73,3,.69-2.92,4.78-7.84c.16-.24.06-.47-.29-.68a2.48,2.48,0,0,0-1.3-.32c-.21,0-.34,0-.39-.07a.56.56,0,0,1-.07-.34v-4a.66.66,0,0,1,.07-.38c0-.05.18-.07.39-.07h11c.21,0,.34,0,.39.07s.07.17.07.38v4c0,.18,0,.3-.07.34s-.18.07-.39.07a4.66,4.66,0,0,0-2.53.5,3.2,3.2,0,0,0-.93.91l-8.16,13.45v5.89a2.74,2.74,0,0,0,0,.45,1.35,1.35,0,0,0,.25.55,1.76,1.76,0,0,0,.62.48,2.68,2.68,0,0,0,1.14.2.52.52,0,0,1,.34.07c.05,0,.07.18.07.39v3.92c0,.21,0,.34-.07.39a.61.61,0,0,1-.34.06H240.59a.69.69,0,0,1-.38-.06c-.05,0-.07-.18-.07-.39V29.42c0-.21,0-.34.07-.39s.17-.07.38-.07a2.45,2.45,0,0,0,1.08-.2,1.93,1.93,0,0,0,.59-.48,1.36,1.36,0,0,0,.27-.57,2,2,0,0,0,.07-.48Z"/><path class="cls-2" d="M272.83,7.08h-3.1a1.47,1.47,0,0,0-1,.43,2,2,0,0,0-.5,1.57c0,.22,0,.35-.07.39s-.19.07-.43.07H264c-.21,0-.34,0-.39-.07a.68.68,0,0,1-.07-.39V2.15a.66.66,0,0,1,.07-.38c.05-.05.18-.07.39-.07h24.21c.21,0,.34,0,.39.07a.66.66,0,0,1,.07.38V9.08a.68.68,0,0,1-.07.39c-.05,0-.18.07-.39.07h-3.78c-.19,0-.3,0-.35-.07a.68.68,0,0,1-.07-.39,2,2,0,0,0-.52-1.57,1.58,1.58,0,0,0-1-.43h-3.15v20a4,4,0,0,0,.05.5,1.61,1.61,0,0,0,.25.64,1.66,1.66,0,0,0,.62.54,2.13,2.13,0,0,0,1.09.23c.21,0,.34,0,.39.07a.73.73,0,0,1,.07.39v3.92a.73.73,0,0,1-.07.39.76.76,0,0,1-.39.06H270.82a.76.76,0,0,1-.39-.06.76.76,0,0,1-.06-.39V29.42a.76.76,0,0,1,.06-.39c.05-.05.18-.07.39-.07a2.19,2.19,0,0,0,1.1-.23,1.63,1.63,0,0,0,.61-.54,1.61,1.61,0,0,0,.25-.64,4,4,0,0,0,.05-.5Z"/><path class="cls-2" d="M301,7.12v8.07h6c.09,0,.25,0,.48,0a1.57,1.57,0,0,0,.69-.23,1.82,1.82,0,0,0,.59-.61,2.29,2.29,0,0,0,.25-1.19c0-.21,0-.34.07-.39a.68.68,0,0,1,.39-.07h4a.73.73,0,0,1,.39.07.73.73,0,0,1,.07.39V22a.66.66,0,0,1-.07.38c-.05.05-.18.07-.39.07h-4c-.22,0-.35,0-.39-.07s-.07-.17-.07-.38a2.14,2.14,0,0,0-.25-1.14,1.86,1.86,0,0,0-.59-.62,1.57,1.57,0,0,0-.69-.23l-.48,0h-6v8.39h9.71a2.25,2.25,0,0,0,.5-.07,1.89,1.89,0,0,0,.62-.27,1.59,1.59,0,0,0,.5-.62,2.4,2.4,0,0,0,.21-1.09.76.76,0,0,1,.06-.39c.05-.05.18-.07.39-.07h3.92c.21,0,.34,0,.39.07s.07.18.07.39v7c0,.21,0,.34-.07.39a.76.76,0,0,1-.39.06H292.39a.76.76,0,0,1-.39-.06.73.73,0,0,1-.07-.39V29.42A.73.73,0,0,1,292,29c.05-.05.18-.07.39-.07a2.42,2.42,0,0,0,1-.18,2,2,0,0,0,.62-.43,1.47,1.47,0,0,0,.32-.55,1.83,1.83,0,0,0,.09-.52v-19a1.89,1.89,0,0,0-.09-.53,1.83,1.83,0,0,0-.32-.57,2.08,2.08,0,0,0-.62-.48,2.25,2.25,0,0,0-1-.2c-.21,0-.34,0-.39-.07a.56.56,0,0,1-.07-.34v-4a.66.66,0,0,1,.07-.38c.05-.05.18-.07.39-.07h23.89c.18,0,.3,0,.34.07s.07.17.07.38v7c0,.22,0,.35-.07.39s-.16.07-.34.07h-4c-.21,0-.34,0-.38-.07s-.07-.17-.07-.39a2.4,2.4,0,0,0-.21-1.09,1.63,1.63,0,0,0-.48-.62,1.66,1.66,0,0,0-.59-.27,3.06,3.06,0,0,0-.55-.07Z"/><path class="cls-2" d="M328,24.31c.31-.06.47.05.5.32a6.46,6.46,0,0,0,2.33,3.08A7.5,7.5,0,0,0,335.43,29a9,9,0,0,0,2.28-.29,7.42,7.42,0,0,0,1.91-.8A4.5,4.5,0,0,0,341,26.64a2.89,2.89,0,0,0,.5-1.65,2.84,2.84,0,0,0-1.21-2.3A14.19,14.19,0,0,0,337.18,21c-1.23-.53-2.55-1.09-4-1.66a23,23,0,0,1-4-2.08,10.83,10.83,0,0,1-3.05-2.94A7.35,7.35,0,0,1,325,10a7.65,7.65,0,0,1,.86-3.6,8.64,8.64,0,0,1,2.37-2.81,11.58,11.58,0,0,1,3.54-1.8,14.76,14.76,0,0,1,4.4-.64,13.82,13.82,0,0,1,4.42.67A10.22,10.22,0,0,1,344,3.61a9.35,9.35,0,0,1,2.28,2.78,10.3,10.3,0,0,1,1.14,3.42c.06.31,0,.46-.32.46l-3.6.82c-.21.06-.38,0-.5-.27a5.63,5.63,0,0,0-2.19-3,7.1,7.1,0,0,0-4.33-1.25,6.59,6.59,0,0,0-1.78.25,6.35,6.35,0,0,0-1.66.71,4.12,4.12,0,0,0-1.23,1.11,2.5,2.5,0,0,0-.48,1.49,3.17,3.17,0,0,0,1.23,2.59,13.76,13.76,0,0,0,3.06,1.83q1.81.83,4,1.59a21.71,21.71,0,0,1,4,1.9,10.69,10.69,0,0,1,3.05,2.78A6.83,6.83,0,0,1,347.78,25a8.08,8.08,0,0,1-.84,3.62,8.86,8.86,0,0,1-2.42,3,12.07,12.07,0,0,1-3.76,2,16.46,16.46,0,0,1-9.66,0,11.48,11.48,0,0,1-3.6-1.94,9.34,9.34,0,0,1-2.38-2.85,10.92,10.92,0,0,1-1.14-3.4.41.41,0,0,1,.32-.5Z"/></svg>